<svg width="443" height="81" viewBox="0 0 443 81" fill="none" xmlns="http://www.w3.org/2000/svg">
<rect y="14" width="16" height="16" fill="white"/>
<rect x="16" y="14" width="15" height="16" fill="white"/>
<rect x="31" y="14" width="16" height="16" fill="white"/>
<rect x="47" y="14" width="16" height="16" fill="white"/>
<rect x="63" y="14" width="16" height="16" fill="white"/>
<rect x="79" y="14" width="15" height="16" fill="white"/>
<rect x="94" y="14" width="16" height="16" fill="white"/>
<rect x="31" y="30" width="16" height="16" fill="white"/>
<rect x="63" y="30" width="16" height="16" fill="white"/>
<rect x="16" y="46" width="15" height="15" fill="white"/>
<rect x="47" y="77" width="16" height="4" fill="white"/>
<rect x="79" y="46" width="15" height="15" fill="white"/>
<rect x="47" y="30" width="16" height="16" fill="white"/>
<rect x="47" y="46" width="16" height="15" fill="white"/>
<rect x="47" y="61" width="16" height="16" fill="white"/>
<path d="M176.6 76V46.7C176.6 38.2 182.1 32.2 189.8 32.2C197 32.2 201.7 37.4 201.7 46.5V76H214.8V42.9C214.8 35.6 212.7 30.1 208.6 26.2C204.5 22.3 199.4 20.3 193.5 20.3C185.6 20.3 179.3 23.8 176.4 29.3V21.7H163.6V76H176.6Z" fill="white"/>
<path d="M268.972 28.6C264.072 23.1 258.172 20.4 251.272 20.4C243.572 20.4 237.072 23.1 231.972 28.4C226.872 33.7 224.372 40.5 224.372 48.6C224.372 56.7 226.872 63.6 231.972 69.1C237.072 74.6 243.472 77.3 251.272 77.3C258.372 77.3 264.272 74.6 268.972 69.3V76H281.372V21.7H268.972V28.6ZM269.272 48.8C269.272 53.5 267.772 57.4 264.772 60.6C261.772 63.8 257.972 65.4 253.272 65.4C248.572 65.4 244.772 63.8 241.772 60.6C238.872 57.4 237.372 53.5 237.372 48.8C237.372 44.2 238.872 40.3 241.772 37.1C244.772 33.9 248.572 32.3 253.272 32.3C257.972 32.3 261.772 33.9 264.772 37.1C267.772 40.3 269.272 44.2 269.272 48.8Z" fill="white"/>
<path d="M324.955 20.4C318.055 20.4 312.255 23.2 307.655 28.7V0H294.655V76H307.455V68.8C312.055 74.5 317.855 77.3 324.855 77.3C332.555 77.3 339.055 74.6 344.155 69.2C349.355 63.7 351.955 57 351.955 48.9C351.955 40.8 349.355 34.1 344.155 28.6C339.055 23.1 332.655 20.4 324.955 20.4ZM338.655 48.8C338.655 53.5 337.155 57.4 334.255 60.6C331.355 63.7 327.655 65.3 322.955 65.3C318.255 65.3 314.455 63.7 311.555 60.6C308.655 57.4 307.155 53.5 307.155 48.8C307.155 44.2 308.655 40.3 311.555 37.2C314.455 34 318.255 32.4 322.955 32.4C327.655 32.4 331.355 34 334.255 37.2C337.155 40.3 338.655 44.2 338.655 48.8Z" fill="white"/>
<path d="M375.233 0H362.233V76H375.233V0Z" fill="white"/>
<path d="M430.202 28.6C425.302 23.1 419.402 20.4 412.502 20.4C404.802 20.4 398.302 23.1 393.202 28.4C388.102 33.7 385.602 40.5 385.602 48.6C385.602 56.7 388.102 63.6 393.202 69.1C398.302 74.6 404.702 77.3 412.502 77.3C419.602 77.3 425.502 74.6 430.202 69.3V76H442.602V21.7H430.202V28.6ZM430.502 48.8C430.502 53.5 429.002 57.4 426.002 60.6C423.002 63.8 419.202 65.4 414.502 65.4C409.802 65.4 406.002 63.8 403.002 60.6C400.102 57.4 398.602 53.5 398.602 48.8C398.602 44.2 400.102 40.3 403.002 37.1C406.002 33.9 409.802 32.3 414.502 32.3C419.202 32.3 423.002 33.9 426.002 37.1C429.002 40.3 430.502 44.2 430.502 48.8Z" fill="white"/>
</svg>
